<svg width="914" height="400" fill="none" xmlns="http://www.w3.org/2000/svg">
  <path fill="#fff" d="M0 0h914v400H0z"/>
  <path d="M371.393 211h-5.073l-3.048-5.045a16.638 16.638 0 00-.657-1.025 5.037 5.037 0 00-.642-.766 2.217 2.217 0 00-.67-.492 1.601 1.601 0 00-.752-.178h-1.19V211h-4.416v-19.605h7c4.758 0 7.137 1.777 7.137 5.332 0 .683-.105 1.317-.314 1.9a5.294 5.294 0 01-.889 1.559 5.634 5.634 0 01-1.394 1.203 7.079 7.079 0 01-1.805.793v.054c.292.091.574.242.847.452.274.2.538.437.793.71.256.274.497.57.725.889.237.31.451.615.643.916l3.705 5.797zm-12.032-16.297v5.455h1.915c.947 0 1.709-.273 2.283-.82.583-.556.875-1.244.875-2.065 0-1.713-1.026-2.57-3.076-2.57h-1.997zm24.761 10.527h-9.133c.146 2.033 1.426 3.049 3.842 3.049 1.54 0 2.894-.364 4.06-1.093v3.117c-1.294.692-2.976 1.039-5.045 1.039-2.26 0-4.015-.625-5.263-1.873-1.249-1.258-1.873-3.008-1.873-5.25 0-2.324.674-4.166 2.023-5.524 1.349-1.358 3.008-2.037 4.977-2.037 2.041 0 3.618.606 4.73 1.819 1.121 1.212 1.682 2.857 1.682 4.935v1.818zm-4.006-2.652c0-2.005-.811-3.008-2.434-3.008-.692 0-1.294.287-1.804.862-.502.574-.807 1.289-.916 2.146h5.154zM399.831 211h-4.32v-1.928h-.055c-.984 1.513-2.429 2.27-4.334 2.27-1.75 0-3.158-.615-4.224-1.846-1.067-1.239-1.6-2.967-1.6-5.182 0-2.315.588-4.169 1.764-5.564 1.176-1.395 2.716-2.092 4.621-2.092 1.805 0 3.062.647 3.773 1.942h.055v-8.327h4.32V211zm-4.238-6.809v-1.052c0-.912-.264-1.668-.793-2.27-.529-.601-1.217-.902-2.064-.902-.957 0-1.705.378-2.243 1.135-.537.747-.806 1.777-.806 3.089 0 1.231.26 2.179.779 2.844.52.666 1.24.998 2.16.998.875 0 1.586-.351 2.133-1.053.556-.701.834-1.631.834-2.789zm9.503-9.406c-.73 0-1.327-.214-1.791-.642a2.115 2.115 0 01-.698-1.6c0-.647.233-1.176.698-1.586.464-.41 1.061-.615 1.791-.615.738 0 1.335.205 1.791.615.464.41.697.939.697 1.586 0 .656-.233 1.194-.697 1.613-.456.42-1.053.629-1.791.629zM407.228 211h-4.32v-14h4.32v14zm2.161-.369v-3.5a9.27 9.27 0 002.119.957c.711.21 1.381.314 2.01.314.766 0 1.367-.104 1.805-.314.446-.21.67-.529.67-.957a.888.888 0 00-.301-.684 2.767 2.767 0 00-.779-.478 8.254 8.254 0 00-1.026-.369c-.374-.11-.734-.233-1.08-.37a11.238 11.238 0 01-1.477-.669 4.589 4.589 0 01-1.066-.848 3.468 3.468 0 01-.656-1.108c-.146-.419-.219-.916-.219-1.49 0-.784.169-1.458.506-2.023a4.206 4.206 0 011.367-1.381 6.11 6.11 0 011.955-.793c.738-.173 1.504-.26 2.297-.26.62 0 1.249.05 1.887.151a13.28 13.28 0 011.887.41v3.336a6.631 6.631 0 00-1.764-.711 7.146 7.146 0 00-1.832-.246 3.82 3.82 0 00-.807.082 2.3 2.3 0 00-.656.218 1.144 1.144 0 00-.451.37.813.813 0 00-.164.505c0 .256.082.474.246.657.164.182.378.341.642.478.265.128.556.246.875.356.328.1.652.205.971.314.574.201 1.094.419 1.559.656.464.237.861.515 1.189.834.337.319.593.693.766 1.121.182.429.273.939.273 1.532 0 .829-.182 1.54-.547 2.133a4.327 4.327 0 01-1.435 1.435c-.593.365-1.281.629-2.065.793-.774.173-1.581.26-2.42.26-1.54 0-2.966-.237-4.279-.711zm34.122.369v-13.535c0-.693.055-1.809.164-3.35h-.054c-.128.41-.246.766-.356 1.067-.1.3-.196.547-.287.738L436.142 211h-.779l-6.85-14.984c-.2-.456-.405-1.099-.615-1.928h-.055c.037.419.06.898.069 1.435.018.538.027 1.135.027 1.791V211h-1.777v-19.605h2.146l6.658 14.738c.137.31.269.629.397.957.137.319.26.661.369 1.025h.082c.128-.364.242-.697.342-.998.109-.301.241-.624.396-.971l6.713-14.751h2.037V211h-1.791zm11.759.328c-1.039 0-1.974-.173-2.803-.519a6.053 6.053 0 01-2.106-1.463 6.547 6.547 0 01-1.339-2.284c-.31-.884-.465-1.863-.465-2.939 0-1.167.164-2.21.492-3.131.328-.92.793-1.7 1.395-2.338a6 6 0 012.201-1.476c.856-.338 1.813-.506 2.871-.506 1.011 0 1.923.168 2.734.506a5.51 5.51 0 012.065 1.435c.565.629.998 1.395 1.298 2.297.301.902.452 1.928.452 3.076 0 1.094-.16 2.092-.479 2.994a6.655 6.655 0 01-1.34 2.311 5.964 5.964 0 01-2.133 1.504c-.838.355-1.786.533-2.843.533zm.136-13.139c-.765 0-1.458.133-2.078.397a4.379 4.379 0 00-1.599 1.162c-.438.501-.775 1.121-1.012 1.859-.237.73-.356 1.559-.356 2.489 0 .875.119 1.663.356 2.365.237.702.57 1.303.998 1.805.437.501.966.888 1.586 1.162.62.264 1.312.396 2.078.396.784 0 1.477-.127 2.078-.383a4.196 4.196 0 001.531-1.134c.42-.502.734-1.112.944-1.832.219-.72.328-1.541.328-2.461 0-1.887-.419-3.327-1.258-4.321-.838-1.002-2.037-1.504-3.596-1.504zM474.479 211v-8.066c0-3.163-1.148-4.745-3.445-4.745-.611 0-1.176.123-1.695.37-.52.237-.971.569-1.354.998-.374.428-.67.938-.889 1.531a5.594 5.594 0 00-.314 1.9V211h-1.75v-14h1.75v2.434h.055c1.039-1.842 2.602-2.762 4.689-2.762 1.531 0 2.698.497 3.5 1.49.802.994 1.203 2.429 1.203 4.307V211h-1.75zm6.276-17.541c-.337 0-.629-.119-.875-.355a1.2 1.2 0 01-.369-.903c0-.355.123-.647.369-.875.246-.237.538-.355.875-.355.173 0 .337.032.492.095.155.055.287.137.397.246.118.11.209.242.273.397.073.146.11.31.11.492a1.276 1.276 0 01-.369.903 1.384 1.384 0 01-.411.259 1.21 1.21 0 01-.492.096zM479.894 211v-14h1.75v14h-1.75zm11.717-.164a4.336 4.336 0 01-1.969.451c-2.26 0-3.39-1.303-3.39-3.91v-8.846h-2.461V197h2.461v-3.527l1.75-.575V197h3.609v1.531h-3.609v8.573c0 .947.155 1.631.465 2.05.31.42.834.629 1.572.629.547 0 1.071-.164 1.572-.492v1.545zm7.848.492c-1.039 0-1.973-.173-2.802-.519a6.034 6.034 0 01-2.106-1.463 6.55 6.55 0 01-1.34-2.284c-.31-.884-.465-1.863-.465-2.939 0-1.167.165-2.21.493-3.131.328-.92.793-1.7 1.394-2.338a6.016 6.016 0 012.201-1.476c.857-.338 1.814-.506 2.871-.506 1.012 0 1.924.168 2.735.506a5.507 5.507 0 012.064 1.435c.565.629.998 1.395 1.299 2.297.301.902.451 1.928.451 3.076 0 1.094-.159 2.092-.478 2.994a6.671 6.671 0 01-1.34 2.311 5.964 5.964 0 01-2.133 1.504c-.838.355-1.786.533-2.844.533zm.137-13.139c-.766 0-1.458.133-2.078.397a4.39 4.39 0 00-1.6 1.162c-.437.501-.774 1.121-1.011 1.859-.237.73-.356 1.559-.356 2.489 0 .875.119 1.663.356 2.365a5.4 5.4 0 00.998 1.805c.437.501.966.888 1.586 1.162.619.264 1.312.396 2.078.396.784 0 1.476-.127 2.078-.383a4.205 4.205 0 001.531-1.134c.419-.502.734-1.112.943-1.832.219-.72.329-1.541.329-2.461 0-1.887-.42-3.327-1.258-4.321-.839-1.002-2.037-1.504-3.596-1.504zm16.571.602c-.41-.301-.939-.451-1.586-.451a2.66 2.66 0 00-1.23.273 3.1 3.1 0 00-.944.711 4.558 4.558 0 00-.683 1.053 7.91 7.91 0 00-.452 1.23c-.109.429-.191.862-.246 1.299-.045.438-.068.852-.068 1.244V211h-1.736v-14h1.736v2.994h.055c.164-.51.369-.966.615-1.367.255-.41.547-.752.875-1.025a3.572 3.572 0 011.066-.643 3.497 3.497 0 011.231-.219c.282 0 .533.018.752.055.228.036.433.091.615.164v1.832zm11.235-5.729V211h-1.818v-17.938h-5.646v-1.667h13.125v1.667h-5.661zm10.87 18.266c-1.039 0-1.973-.173-2.803-.519a6.04 6.04 0 01-2.105-1.463 6.55 6.55 0 01-1.34-2.284c-.31-.884-.465-1.863-.465-2.939 0-1.167.164-2.21.493-3.131.328-.92.792-1.7 1.394-2.338a6.008 6.008 0 012.201-1.476c.857-.338 1.814-.506 2.871-.506 1.012 0 1.923.168 2.735.506a5.507 5.507 0 012.064 1.435c.565.629.998 1.395 1.299 2.297.301.902.451 1.928.451 3.076 0 1.094-.159 2.092-.478 2.994a6.671 6.671 0 01-1.34 2.311 5.972 5.972 0 01-2.133 1.504c-.839.355-1.786.533-2.844.533zm.137-13.139c-.766 0-1.458.133-2.078.397a4.39 4.39 0 00-1.6 1.162c-.437.501-.775 1.121-1.012 1.859-.236.73-.355 1.559-.355 2.489 0 .875.119 1.663.355 2.365.237.702.57 1.303.999 1.805.437.501.966.888 1.585 1.162.62.264 1.313.396 2.079.396.783 0 1.476-.127 2.078-.383a4.205 4.205 0 001.531-1.134c.419-.502.734-1.112.943-1.832.219-.72.328-1.541.328-2.461 0-1.887-.419-3.327-1.257-4.321-.839-1.002-2.037-1.504-3.596-1.504zm11.375 10.555v8.695h-1.75V197h1.75v2.68h.055c.52-.976 1.212-1.718 2.078-2.229.875-.519 1.86-.779 2.953-.779.894 0 1.691.164 2.393.492a4.828 4.828 0 011.791 1.367c.492.593.866 1.313 1.121 2.16.264.848.397 1.801.397 2.858 0 1.157-.146 2.215-.438 3.172-.292.948-.711 1.763-1.258 2.447a5.766 5.766 0 01-1.996 1.6c-.775.373-1.65.56-2.625.56-1.969 0-3.441-.861-4.416-2.584h-.055zm0-3.568c0 .638.105 1.239.315 1.804.219.556.519 1.049.902 1.477.383.419.843.752 1.381.998a4.351 4.351 0 001.805.369c.702 0 1.335-.146 1.9-.437a4.16 4.16 0 001.436-1.272c.401-.547.706-1.207.916-1.982.218-.775.328-1.641.328-2.598 0-.82-.1-1.558-.301-2.215-.2-.665-.488-1.23-.861-1.695a3.625 3.625 0 00-1.34-1.066c-.52-.247-1.103-.37-1.75-.37-.729 0-1.386.137-1.969.411a4.367 4.367 0 00-1.49 1.093 4.856 4.856 0 00-.943 1.641 5.91 5.91 0 00-.329 1.982v1.86z" fill="#333"/>
</svg>
